<svg xmlns="http://www.w3.org/2000/svg" xmlns:xlink="http://www.w3.org/1999/xlink" version="1.1" x="0px" y="0px" viewBox="0 -10 100 125" enable-background="new 0 0 100 100" fill="#fffecb" xml:space="preserve"><g><path d="M54,87.25V95c0,2.209-1.791,4-4,4s-4-1.791-4-4v-7.75c0-2.209,1.791-4,4-4S54,85.041,54,87.25z M50,16.75   c2.209,0,4-1.791,4-4V5c0-2.209-1.791-4-4-4s-4,1.791-4,4v7.75C46,14.959,47.791,16.75,50,16.75z M15.742,65.155l-6.71,3.87   c-1.914,1.104-2.57,3.55-1.467,5.463c0.74,1.284,2.085,2.002,3.469,2.002c0.678,0,1.365-0.172,1.994-0.536l6.71-3.87   c1.914-1.104,2.57-3.55,1.467-5.463C20.103,64.709,17.655,64.05,15.742,65.155z M82.264,35.38c0.678,0,1.365-0.172,1.994-0.536   l6.71-3.87c1.914-1.104,2.57-3.55,1.467-5.463c-1.103-1.914-3.55-2.572-5.463-1.466l-6.71,3.87c-1.914,1.104-2.57,3.55-1.467,5.463   C79.535,34.663,80.88,35.38,82.264,35.38z M33.378,78.795c-1.913-1.105-4.36-0.448-5.463,1.466l-3.87,6.71   c-1.104,1.914-0.447,4.36,1.467,5.463c0.629,0.363,1.316,0.536,1.994,0.536c1.383,0,2.729-0.718,3.469-2.002l3.87-6.71   C35.948,82.344,35.292,79.898,33.378,78.795z M66.622,21.205c0.629,0.363,1.316,0.536,1.994,0.536c1.383,0,2.729-0.718,3.469-2.002   l3.87-6.71c1.104-1.914,0.447-4.36-1.467-5.463c-1.913-1.104-4.36-0.448-5.463,1.466l-3.87,6.71   C64.052,17.656,64.708,20.102,66.622,21.205z M90.968,69.025l-6.71-3.87c-1.913-1.105-4.359-0.448-5.463,1.466   c-1.104,1.914-0.447,4.36,1.467,5.463l6.71,3.87c0.629,0.363,1.316,0.536,1.994,0.536c1.383,0,2.729-0.718,3.469-2.002   C93.538,72.575,92.882,70.129,90.968,69.025z M19.738,27.915l-6.71-3.87c-1.913-1.105-4.36-0.448-5.463,1.466   c-1.104,1.914-0.447,4.36,1.467,5.463l6.71,3.87c0.629,0.363,1.316,0.536,1.994,0.536c1.383,0,2.729-0.718,3.469-2.002   C22.309,31.465,21.652,29.019,19.738,27.915z M72.085,80.261c-1.103-1.913-3.55-2.571-5.463-1.466   c-1.914,1.104-2.57,3.549-1.467,5.463l3.87,6.71c0.74,1.284,2.085,2.002,3.469,2.002c0.678,0,1.365-0.172,1.994-0.536   c1.914-1.104,2.57-3.549,1.467-5.463L72.085,80.261z M27.915,19.739c0.74,1.284,2.085,2.002,3.469,2.002   c0.678,0,1.365-0.172,1.994-0.536c1.914-1.104,2.57-3.549,1.467-5.463l-3.87-6.71c-1.103-1.913-3.549-2.571-5.463-1.466   c-1.914,1.104-2.57,3.549-1.467,5.463L27.915,19.739z M95,46h-7.75c-2.209,0-4,1.791-4,4s1.791,4,4,4H95c2.209,0,4-1.791,4-4   S97.209,46,95,46z M16.75,50c0-2.209-1.791-4-4-4H5c-2.209,0-4,1.791-4,4s1.791,4,4,4h7.75C14.959,54,16.75,52.209,16.75,50z    M77.375,50c0,15.095-12.28,27.375-27.375,27.375S22.625,65.095,22.625,50S34.905,22.625,50,22.625S77.375,34.905,77.375,50z    M69.375,50c0-10.684-8.691-19.375-19.375-19.375S30.625,39.316,30.625,50S39.316,69.375,50,69.375S69.375,60.684,69.375,50z"/></g></svg>