<svg xmlns="http://www.w3.org/2000/svg" xmlns:xlink="http://www.w3.org/1999/xlink" version="1.1" x="0px" y="0px" viewBox="0 0 24 30" style="enable-background:new 0 0 24 24;" xml:space="preserve"><g><path d="M14.498,20.973c-0.339,0-0.656-0.068-0.918-0.245c-0.272-0.183-0.593-0.559-0.58-1.307   c0.019-1.035,0.867-1.493,1.487-1.828l0.197-0.108c0.812-0.454,1.432-0.868,1.951-1.302c1.034-0.867,1.525-1.63,1.469-1.825l0,0   c-0.001,0-0.031-0.034-0.141-0.072c-0.158-0.054-0.356-0.069-0.565-0.085c-0.173-0.013-0.344-0.026-0.508-0.058   c-2.403-0.452-3.896-2.229-3.896-4.64C12.994,6.469,15.463,4,18.497,4C21.583,4,24,6.417,24,9.503c0,3.607-1.836,8.591-7.01,10.761   l-0.125,0.054C16.273,20.568,15.321,20.973,14.498,20.973z M18.497,5c-2.483,0-4.503,2.02-4.503,4.503   c0,1.956,1.123,3.289,3.081,3.657c0.128,0.023,0.263,0.033,0.398,0.043c0.251,0.02,0.535,0.041,0.814,0.137   c0.599,0.205,0.759,0.611,0.8,0.836c0.176,0.945-1.059,2.144-1.811,2.773c-0.568,0.476-1.237,0.923-2.104,1.408l-0.21,0.115   c-0.595,0.32-0.956,0.546-0.963,0.966c-0.004,0.24,0.042,0.396,0.139,0.46c0.296,0.202,1.083,0.03,2.335-0.502l0.13-0.055   C21.325,17.361,23,12.804,23,9.503C23,6.978,21.022,5,18.497,5z"/><path d="M1.499,20.973c-0.339,0-0.657-0.068-0.918-0.245C0.309,20.545-0.013,20.169,0,19.421c0.018-1.036,0.868-1.494,1.489-1.829   l0.196-0.107c0.812-0.454,1.432-0.868,1.95-1.302c1.035-0.866,1.526-1.629,1.47-1.825l0,0c-0.001,0-0.031-0.034-0.141-0.072   c-0.158-0.054-0.356-0.069-0.566-0.085c-0.172-0.013-0.343-0.026-0.508-0.058c-2.404-0.452-3.896-2.229-3.896-4.64   C-0.006,6.469,2.463,4,5.497,4C8.583,4,11,6.417,11,9.503c0,3.607-1.836,8.59-7.01,10.761l-0.125,0.054   C3.273,20.568,2.322,20.973,1.499,20.973z M5.497,5C3.014,5,0.994,7.02,0.994,9.503c0,1.956,1.123,3.289,3.081,3.657   c0.129,0.023,0.264,0.033,0.399,0.043c0.251,0.02,0.536,0.041,0.815,0.137c0.599,0.205,0.758,0.612,0.8,0.836   c0.176,0.946-1.06,2.145-1.812,2.774c-0.567,0.474-1.236,0.921-2.104,1.407l-0.209,0.114C1.37,18.792,1.008,19.018,1,19.438   c-0.004,0.24,0.042,0.396,0.139,0.46c0.442,0.302,1.867-0.304,2.333-0.502l0.13-0.055C8.325,17.36,10,12.804,10,9.503   C10,6.978,8.022,5,5.497,5z"/></g><text x="0" y="39" fill="#000000" font-size="5px" font-weight="bold" font-family="'Helvetica Neue', Helvetica, Arial-Unicode, Arial, Sans-serif">Created by ✦ Shmidt Sergey ✦</text><text x="0" y="44" fill="#000000" font-size="5px" font-weight="bold" font-family="'Helvetica Neue', Helvetica, Arial-Unicode, Arial, Sans-serif">from the Noun Project</text></svg>